<svg xmlns="http://www.w3.org/2000/svg" xmlns:xlink="http://www.w3.org/1999/xlink" width="1920" height="1080" viewBox="0 0 1920 1080">
  <defs>
    <style>
      .cls-1 {
        clip-path: url(#clip-Web_1920_1);
      }

      .cls-2 {
        fill: #a9a9ae;
      }

      .cls-3 {
        fill: #000b76;
      }

      .cls-4 {
        fill: #fff;
      }
    </style>
    <clipPath id="clip-Web_1920_1">
      <rect width="100%" height="100%"/>
    </clipPath>
  </defs>
  <g id="Web_1920_1" data-name="Web 1920 – 1" class="cls-1">
    <rect class="cls-4" width="100%" height="100%"/>
    <path id="wave_8_" data-name="wave (8)" class="cls-2" d="M1972.205,0,1890.03,107.029c-82.175,106.027-246.526,321.589-410.876,387.511-164.35,66.925-328.7-13.285-493.051-106.779-164.35-94.5-328.7-199.771-493.051-267.448S164.351,27.572,82.175,13.285L0,0V802.094H1972.205Z" transform="translate(-29.003 305.116)"/>
    <path id="wave_8_2" data-name="wave (8)" class="cls-3" d="M2283,706.163l-95.125-94.229C2092.75,518.589,1902.5,328.807,1712.25,270.769c-190.25-58.921-380.5,11.7-570.75,94.008C951.25,447.972,761,540.656,570.75,600.239s-380.5,81.65-475.625,94.229L0,706.163V0H2283Z"/>
  </g>
</svg>
